<svg width="376" height="376" viewBox="0 0 376 376" fill="none" xmlns="http://www.w3.org/2000/svg">
<rect width="376" height="376" fill="white"/>
<mask id="mask0_204_19096" style="mask-type:alpha" maskUnits="userSpaceOnUse" x="0" y="0" width="376" height="376">
<circle cx="188" cy="188" r="188" fill="white"/>
</mask>
<g mask="url(#mask0_204_19096)">
<circle cx="188" cy="206" r="167" stroke="black" stroke-width="6"/>
<path fill-rule="evenodd" clip-rule="evenodd" d="M327.373 544.418C335.233 544.038 332.072 530.278 331.508 525.225C325.285 506.768 326.748 486.63 324.3 467.284C322.776 449.225 320.817 431.221 319.169 413.175C315.932 376.544 292.691 301.971 266.169 289.978C262.828 275.306 249.028 261.61 231.569 261.61C219.661 247.502 205.328 237.573 186.945 239.578C179.348 239.924 171.98 247.988 164.701 249.545C160.625 250.108 124.454 248.66 117.208 252.967C112.161 255.561 107.605 260.354 109.089 266.456C111.457 273.848 104.099 265.849 88.7491 273.74C57.4489 292.555 76.1526 317.725 76.9814 318.505C57.4489 345.705 40.3766 367.772 32.4774 401.018C27.358 425.701 27.9343 451.181 23.6449 475.991C22.1304 484.593 19.807 492.901 17.2928 501.255C14.568 512.188 13.2431 539.437 11.7412 539.681C9.00537 540.361 13.3223 545.983 16.2212 545.987C96.5929 559.331 178.231 546.54 259.035 544.45C281.807 543.658 304.603 543.475 327.373 544.418Z" fill="white"/>
<path fill-rule="evenodd" clip-rule="evenodd" d="M205.558 320.906C205.595 320.537 206.091 320.538 206.13 320.906L206.697 326.388C207.387 333.084 208.052 339.767 208.534 346.494C209.135 354.883 209.536 363.27 209.73 371.677C210.405 400.959 210.539 430.256 210.596 459.545C214.554 459.27 218.512 459.006 222.472 458.751C225.158 458.577 227.845 458.41 230.532 458.246L237.384 457.831V457.831L240.205 457.657C242.111 457.539 244.276 457.059 245.609 458.749C246.143 459.426 246.41 460.305 245.913 461.108C244.766 462.96 243.003 462.896 241.01 462.976C239.13 463.052 237.249 463.126 235.369 463.199C231.339 463.356 227.309 463.503 223.278 463.616C219.048 463.735 214.819 463.832 210.591 463.904C210.548 476.268 210.037 488.618 209.484 500.969L209.234 506.527C208.558 521.557 207.83 536.601 206.797 551.611C206.712 552.84 204.975 552.838 204.89 551.611C203.726 534.707 202.959 517.767 202.197 500.84C201.645 488.567 201.324 476.291 201.171 464.013C200.612 464.017 200.053 464.025 199.494 464.027C183.622 464.096 167.754 464.165 151.882 464.016C151.909 464.048 151.935 464.079 151.952 464.12C153.101 466.834 153.21 470.297 153.182 473.21C153.15 476.55 152.701 479.849 151.932 483.098C149.178 494.734 142.075 505.157 133.985 513.774L133.721 514.054C131.813 516.072 129.623 518.1 128.452 520.67C127.255 523.295 126.84 526.365 126.249 529.185L126.18 529.509L123.871 540.184C123.137 543.575 122.929 548.52 120.247 550.967C117.745 553.249 114.431 552.057 113.253 549.118C112.334 546.825 113.25 544.305 113.794 542.013L118.061 524.062C118.762 521.135 119.528 518.188 121.041 515.559C122.591 512.865 124.863 510.913 127.182 508.915C131.572 505.132 135.602 500.801 139.011 496.112C142.418 491.424 145.33 486.257 147.372 480.824C148.394 478.104 149.232 475.278 149.81 472.43C150.359 469.727 150.354 466.927 150.942 464.253C150.982 464.068 151.138 463.941 151.317 463.885C151.274 463.766 151.339 463.605 151.506 463.594L164.486 462.759C176.025 462.014 187.563 461.25 199.091 460.377L201.128 460.23V460.23C200.97 443.848 201.104 427.464 201.4 411.076C201.671 396.048 201.676 381.016 202.123 365.991C202.345 358.533 202.824 351.093 203.356 343.651C203.901 336.04 204.774 328.494 205.558 320.906ZM83.676 408.04C83.5377 407.205 84.5866 406.688 85.0701 407.452C90.5974 416.171 93.2625 425.643 94.3857 435.847C95.3781 444.853 95.0857 453.989 94.5915 463.018C94.0645 472.649 93.4495 482.277 92.8277 491.902L91.8724 506.663V506.663L89.475 543.667C89.3033 546.314 88.7031 548.721 86.426 549.952C86.1377 550.193 85.8371 550.409 85.487 550.596C84.2567 551.254 82.6251 550.922 81.9138 549.658L82.199 549.846C82.4474 550.002 82.1685 549.784 81.3619 549.191L80.6774 548.304V548.304C80.1801 547.556 79.8624 546.821 79.7347 545.931C79.5363 544.549 79.7933 543.033 79.8836 541.645L81.455 517.38V517.38C82.6771 498.516 84.1042 479.658 85.1799 460.784C85.681 451.988 86.0319 443.183 85.7944 434.372C85.5577 425.609 85.1116 416.697 83.676 408.04ZM131.492 245.606L131.799 245.555C142.777 243.73 154.715 244.071 164.749 249.368C164.832 249.412 164.794 249.55 164.701 249.545L161.471 249.416C151.248 249.016 141.056 248.778 131.003 251.183L129.974 251.431C126.354 252.315 122.573 253.396 119.665 255.79C116.886 258.077 115.502 261.606 114.171 264.854L113.993 265.283C112.643 268.492 110.934 271.534 107.975 273.541C104.142 276.139 99.532 275.821 95.1369 276.174C87.3984 276.796 81.0715 282.409 77.9237 289.278C76.0176 293.437 75.2046 298.1 75.0436 302.649C74.961 304.964 74.9492 307.37 75.2575 309.67C75.3559 310.406 76.2644 313.086 76.7277 313.021C77.757 312.878 78.6981 313.416 79.019 314.239C81.5616 311.781 84.1774 309.393 86.8774 307.091C93.6078 301.355 100.857 296.155 108.491 291.688C114.318 288.277 120.464 284.899 126.828 282.345C126.324 282.334 125.827 282.434 125.345 282.685C125.135 282.795 124.925 282.53 125.092 282.355C127.096 280.244 129.497 279.944 131.918 280.507C132.434 280.342 132.951 280.183 133.47 280.032C133.729 279.957 133.857 280.313 133.646 280.451L133.052 280.831V280.831C135.692 281.716 138.285 283.456 140.338 284.83C146.234 288.774 151.424 293.595 156.685 298.326L157.641 299.184C162.272 303.322 167.021 307.344 172.282 310.664C175.036 312.401 177.929 314.009 180.963 315.204C183.566 316.23 187.803 316.876 189.022 319.629C190.105 320.946 189.653 322.628 188.384 323.514C186.244 325.871 181.963 324.349 179.413 323.367C176.339 322.183 173.361 320.76 170.52 319.092C165.006 315.852 159.921 311.823 155.185 307.538C150.239 303.062 145.573 298.307 140.761 293.691C138.677 291.691 136.64 289.644 134.553 287.647L133.504 286.652C132.439 285.652 130.92 284.093 129.297 283.15C126.239 284.975 123.134 286.726 120.104 288.599C115.874 291.213 111.768 294.015 107.726 296.91C99.9448 302.483 92.5707 308.725 85.7249 315.415C73.1695 327.684 62.4728 341.694 53.1282 356.53L52.4186 357.66C47.1086 366.151 42.087 374.916 38.5264 384.299C34.6088 394.624 32.7035 405.481 31.6684 416.44C30.6411 427.322 30.2946 438.258 29.1465 449.129C27.9692 460.278 25.6494 471.181 23.0108 482.064L22.3815 484.644C19.994 494.39 17.5297 504.137 16.3025 514.113C15.6473 519.442 15.2532 524.844 15.3423 530.216C15.4317 535.62 16.2801 540.904 16.9645 546.25C17.2269 548.299 15.2129 550.008 13.4109 550.28C11.3384 550.591 9.55791 549.268 8.91371 547.341C6.90548 541.334 6.54067 534.694 6.60371 528.389C6.66715 521.988 7.48338 515.63 8.63187 509.339C10.8906 496.966 14.3764 484.848 17.2923 472.623C19.8622 461.848 21.587 451.054 22.5167 440.015C23.4818 428.563 24.0597 417.072 25.8202 405.702C27.558 394.477 30.8278 383.756 35.7589 373.52C40.2488 364.201 45.8457 355.43 51.7134 346.928C58.839 336.604 66.6649 326.78 75.4128 317.829C74.6271 317.795 73.8202 317.541 73.0792 317.079C70.8124 315.663 69.7566 312.895 69.432 310.367C68.6724 304.454 68.8558 298.281 70.3752 292.5C72.8263 283.173 79.1877 274.887 88.4074 271.525C90.7804 270.66 93.3031 270.344 95.8181 270.282C98.2046 270.222 100.811 270.534 103.114 269.776C106.779 268.571 108.35 264.25 109.726 260.975L109.79 260.825C111.554 256.651 113.672 253.074 117.494 250.468C121.572 247.687 126.681 246.423 131.492 245.606V245.606ZM235.807 262.111C239.106 260.966 243.231 262.005 246.457 263.006C250.051 264.121 253.373 266.175 256.221 268.615C259.225 271.187 261.708 274.364 263.462 277.912L263.629 278.254C265.232 281.546 267.056 286.065 266.248 289.681C266.225 289.784 266.199 289.883 266.169 289.978C272.714 293.203 278.759 297.243 284.024 302.363C290.153 308.324 295.343 315.107 299.736 322.436C317.18 351.542 320.25 386.499 322.311 419.693L322.825 428.11C323.943 446.284 325.252 464.415 328.653 482.338L328.901 483.632C332.537 502.398 337.74 521.307 337.213 540.558C337.055 546.326 328.538 546.287 328.291 540.558C327.362 518.996 322.334 498.177 318.93 476.952C312.94 439.609 315.941 401.11 307.453 364.142C304.123 349.634 298.963 335.561 291.595 322.611C287.955 316.214 283.791 310.032 278.913 304.513C274.717 299.764 270.355 295.193 265.451 291.201C263.883 292.772 260.752 291.972 259.934 289.681C259.372 288.107 259.536 286.267 259.175 284.618C258.84 283.088 258.379 281.571 257.764 280.13C256.538 277.258 254.739 274.5 252.662 272.176C250.418 269.664 247.839 267.577 244.954 265.853C242.049 264.118 238.871 263.6 235.807 262.332C235.704 262.289 235.694 262.151 235.807 262.111ZM248.625 461.683C248.629 461.532 248.808 461.46 248.918 461.562C250.074 462.627 250.773 464.156 251.625 465.466C252.606 466.977 253.637 468.457 254.718 469.899C256.884 472.787 259.296 475.509 261.726 478.177C263.986 480.657 266.396 483.033 268.895 485.273C271.603 487.7 274.637 489.865 277.097 492.552C282.23 498.16 283.06 505.856 284.143 513.082L284.261 513.864C284.922 518.153 285.513 522.453 286.047 526.759C286.306 528.853 286.565 530.95 286.777 533.05L286.841 533.715C287.03 535.771 287.081 537.857 285.901 539.653C284.638 541.575 281.767 542.248 280.06 540.406C277.128 537.24 277.678 531.617 277.296 527.545C276.981 524.177 276.624 520.814 276.223 517.455L276.02 515.777C275.548 511.956 275.165 508.059 274.292 504.305C273.522 500.999 272.055 498.504 269.648 496.109C267.223 493.697 264.704 491.444 262.466 488.846C260.092 486.09 257.951 483.136 256.021 480.052C254.371 477.414 253.048 474.544 251.837 471.677L251.636 471.199C250.464 468.403 248.533 464.763 248.625 461.683ZM290.966 341.587C290.992 341.197 291.567 341.191 291.576 341.587C291.649 344.941 291.719 348.295 291.788 351.649C292.348 378.678 292.003 405.771 294.712 432.706C295.99 445.407 298.343 457.92 301.066 470.381C302.459 476.758 303.921 483.119 305.31 489.496C306.663 495.711 308.115 501.956 309.189 508.229C310.244 514.395 311.188 520.608 311.613 526.852L311.665 527.667C311.847 530.691 312.719 535.14 311.055 537.822C309.252 540.726 305.799 540.778 303.867 538.006C302.053 535.403 302.504 530.772 302.183 527.667C301.858 524.503 301.513 521.336 301.122 518.18C300.358 512.022 299.353 505.879 298.307 499.763C296.128 487.028 292.968 474.452 290.636 461.737C288.245 448.708 286.546 435.586 286.474 422.32C286.403 408.942 287.818 395.59 288.532 382.24C289.258 368.683 290.083 355.135 290.966 341.587ZM163.395 257.518C164.12 255.075 166.679 253.547 169.176 254.233C171.463 254.863 173.352 257.642 172.458 260.019C171.482 262.614 169.776 264.826 168.338 267.184C167.01 269.363 165.072 271.079 163.719 273.219L165.21 274.828C165.956 275.63 166.704 276.428 167.461 277.212L170.061 279.908C172.087 282.004 174.125 284.088 176.22 286.11C182.382 292.059 188.642 297.813 195.543 302.908C197.114 304.067 198.698 305.22 200.325 306.299L200.932 306.702C202.049 307.433 203.295 308.153 204.643 308.029C207.921 307.727 210.883 304.243 213.135 302.075L213.253 301.962C218.835 296.646 224.004 290.835 228.522 284.586C229.526 283.197 230.497 281.785 231.443 280.356C229.258 277.802 229.78 272.816 229.66 269.719C229.575 267.541 229.568 265.362 229.556 263.182L229.551 262.743C229.524 261.332 229.46 259.979 230.375 258.818C230.428 258.751 230.539 258.753 230.607 258.788C231.859 259.445 232.246 260.546 232.78 261.78L232.836 261.908C233.487 263.389 234.11 264.884 234.74 266.374C235.4 267.934 236.005 269.516 236.619 271.095C236.904 271.829 237.177 272.566 237.443 273.308C237.605 273.781 237.773 274.252 237.946 274.722L237.986 274.758C238.214 274.952 238.407 275.156 238.574 275.367C239.273 275.717 239.828 276.355 240.089 277.292C240.656 279.331 239.482 280.995 238.435 282.613C234.181 289.191 229.332 295.459 223.941 301.145C221.264 303.97 218.447 306.668 215.515 309.227L215.002 309.672C212.368 311.937 209.509 314.083 205.991 314.613C201.874 315.233 198.524 313.184 195.372 310.824L195.058 310.587C192.07 308.323 189.143 305.98 186.307 303.529C180.524 298.533 175.023 293.167 170.14 287.281C165.391 281.556 160.696 275.154 157.769 268.264C157.591 267.845 158.06 267.405 158.428 267.756C159.857 269.118 161.233 270.555 162.593 272.01C162.631 269.868 162.236 267.708 162.455 265.553C162.723 262.934 162.646 260.04 163.395 257.518Z" fill="black"/>
<path fill-rule="evenodd" clip-rule="evenodd" d="M262.213 190.011C261.338 182.312 262.471 166.219 262.547 165.241C263.027 159.06 260.133 134.652 254.663 136.901C245.487 129.631 233.266 128.026 221.838 127.259C198.1 125.666 172.848 129.323 154.518 145.312C145.454 153.615 136.629 165.692 137.338 178.266C129.102 190.185 117.492 206.535 127.753 220.469C131.241 224.921 136.785 226.579 141.167 229.951C149.98 237.066 155.51 247.277 164.407 254.35C187.979 275.55 228.004 279.978 251.164 255.865C269.072 238.401 266.177 212.275 263.027 190.011C260.909 175.043 263.921 205.031 262.213 190.011Z" fill="white"/>
<path fill-rule="evenodd" clip-rule="evenodd" d="M190.128 94.6086C196.476 93.3265 202.995 92.5286 209.478 92.7688L209.978 92.7882C214.856 92.9834 221.033 93.415 225.288 96.2539C225.533 96.0081 225.927 95.8819 226.284 96.0524C231.341 98.4682 236.903 100.215 242.227 101.951C247.527 103.678 253.026 104.818 258.581 105.277C260.67 105.45 262.459 107.709 261.136 109.735C260.821 110.218 260.514 110.705 260.209 111.194C260.72 111.141 261.231 111.086 261.741 111.034C263.422 110.865 265.101 112.66 265.002 114.298C264.94 115.328 264.828 116.346 264.664 117.352C265.304 117.339 265.941 117.435 266.556 117.695C269.669 119.011 269.453 122.723 269.22 125.547C268.897 129.466 267.432 133.617 264.713 136.55C266.743 138.661 268.18 141.181 269.038 144.175C269.66 146.36 270.006 148.689 269.835 150.964L269.78 151.645C269.569 154.114 269.149 156.848 267.374 158.625C266.463 159.54 265.341 159.874 264.271 159.768C264.918 165.459 265.333 171.182 265.723 176.885L265.906 179.61C266.777 192.79 267.432 206.056 267.261 219.258C267.101 231.596 264.666 243.571 257.105 253.588C250.22 262.71 240.334 269.434 229.15 271.991C223.122 273.371 216.969 273.468 210.869 272.589C207.912 272.162 204.935 271.506 202.129 270.472C199.022 269.325 196.789 267.635 194.699 265.104C193.71 263.903 194.186 261.346 196.155 261.587C199.132 261.948 201.85 262.384 204.705 263.265L205.114 263.394C207.957 264.306 210.901 264.985 213.874 265.274C219.962 265.865 226.144 265.27 231.976 263.422C241.472 260.41 249.651 253.698 254.893 245.264C261.115 235.267 261.819 223.919 261.729 212.424C261.633 199.81 261.223 187.189 260.554 174.588L260.44 172.489C260.086 166.004 259.744 159.516 259.444 153.028C259.35 150.993 259.208 148.941 258.951 146.91C256.605 145.534 254.503 143.637 253.132 141.297C250.379 142.436 247.483 143.259 244.819 143.914C238.648 145.433 232.241 145.802 225.959 144.851C224.265 145.551 222.537 146.167 220.783 146.697C220.309 146.907 219.834 147.114 219.361 147.317C215.131 149.128 210.84 150.663 206.375 151.786L205.278 152.06C202.928 152.64 200.376 153.211 197.875 153.39C197.464 153.549 197.021 153.683 196.537 153.801C194.26 154.355 191.896 154.53 189.562 154.334C187.289 154.143 185.646 151.843 186.898 149.69C187.813 148.119 188.737 146.552 189.668 144.989C186.427 146.34 183.08 147.463 179.704 148.416C176.296 149.377 172.839 150.187 169.378 150.931C167.527 151.326 165.669 151.676 163.823 152.071C162.501 152.352 160.472 152.499 159.394 153.37C158.202 154.326 157.865 156.557 157.413 157.933C156.819 159.72 156.262 161.515 155.754 163.33C154.742 166.953 153.912 170.628 153.269 174.341C152.627 178.057 152.195 181.81 151.955 185.575C151.716 189.336 151.821 193.122 151.435 196.866C151.227 198.853 149.097 199.875 147.523 198.487C147.338 198.324 147.152 198.159 146.968 197.993L146.693 197.742C145.347 196.521 144.041 195.226 142.964 193.769C142.769 193.5 142.582 193.219 142.407 192.934C142.378 192.934 142.354 192.926 142.325 192.906L142.027 192.681C138.737 190.231 133.242 187.036 130.035 191.107C129.013 192.404 128.49 194.055 128.056 195.648L127.294 198.499C126.801 200.36 126.337 202.232 126.065 204.136C125.451 208.402 125.76 213.319 128.693 216.738C129.864 218.106 131.479 219.083 133.28 219.339C134.285 219.478 135.277 219.307 136.274 219.181C137.286 219.055 138.262 219.258 139.275 219.16C140.886 219.002 141.589 220.931 140.987 222.144C140.662 222.795 140.279 223.357 139.844 223.833C140.194 224.134 140.528 224.46 140.849 224.802C141.801 225.107 142.654 225.763 143.293 226.63C143.81 227.33 144.078 228.091 144.123 228.893C144.179 229.092 144.228 229.296 144.273 229.503L145.146 230.921C145.338 231.232 145.529 231.539 145.721 231.84C147.941 235.34 150.406 238.304 153.469 241.096C156.417 243.782 159.617 246.188 162.387 249.07L162.714 249.412C165.296 252.136 168.018 255.433 167.007 259.393C166.747 260.41 165.327 261.143 164.4 260.455C161.419 258.241 159.918 254.732 157.389 252.046C154.786 249.278 151.902 246.791 149.292 244.031C146.823 241.426 144.875 238.475 143.407 235.226C142.821 235.874 141.967 236.334 140.784 236.513C138.75 236.818 136.855 235.625 135.969 233.863C135.399 234.115 134.818 234.343 134.232 234.522C131.149 235.467 129.21 232.035 130.373 229.499C130.994 228.14 131.771 226.959 132.736 225.966C129.722 225.551 126.655 223.992 124.675 222.046C119.705 217.158 119.022 209.811 120.14 203.277C120.734 199.814 121.759 196.309 123.089 193.057C123.32 192.491 123.569 191.921 123.841 191.359C123.69 191.355 123.536 191.29 123.438 191.164C122.539 189.935 121.446 188.929 120.778 187.553C120.164 186.291 119.482 185.013 118.997 183.699C118.001 181.008 117.513 177.971 117.188 175.126C116.517 169.301 116.777 163.513 117.668 157.725C119.184 147.866 122.848 138.432 128.245 130.153C127.951 129.999 127.669 129.812 127.407 129.592L127.277 129.479L127.067 129.288C125.527 127.893 125.66 125.279 127.067 123.866L127.511 123.42C128.074 122.86 128.559 122.417 129.468 121.808C129.602 121.718 129.739 121.633 129.878 121.554C129.402 120.674 129.237 119.645 129.569 118.51C130.724 114.555 136.409 114.695 140.013 116.42C144 112.859 148.42 109.767 153.212 107.264C164.624 101.305 177.528 97.1486 190.128 94.6086ZM131.137 198.771C133.268 198.075 136.099 199.537 138.014 200.416C140.442 201.531 142.508 203.18 144.509 204.922C145.506 205.793 145.684 207.218 145.437 208.435C145.412 208.557 145.388 208.683 145.359 208.809C145.095 210.108 143.647 211.129 142.366 211.093C139.686 211.019 138.409 208.703 136.892 206.741C136.713 207.059 136.489 207.352 136.212 207.572L136.025 207.718C135.396 208.198 134.702 208.582 133.87 208.545C133.28 208.516 132.715 208.366 132.194 208.093C130.893 207.405 130.32 205.72 130.673 204.348C130.893 203.485 131.397 202.809 132.056 202.341L131.81 202.173C131.285 201.807 130.806 201.421 130.432 200.852L130.348 200.717H130.381C129.974 200.017 130.239 199.065 131.137 198.771Z" fill="black"/>
<path fill-rule="evenodd" clip-rule="evenodd" d="M229.847 232.079C230.471 230.993 231.907 229.987 233.222 230.142C239.11 230.833 239.1 237.978 236.826 242.149C234.81 245.848 230.638 248.019 226.462 247.702C222.075 247.369 218.337 244.787 216.692 240.68C215.604 237.963 215.101 232.947 217.996 231.121C218.049 231.087 218.138 231.096 218.181 231.145C219.568 232.76 219.623 235.186 220.837 236.985C221.967 238.658 223.723 240.039 225.779 240.253C227.314 240.412 228.868 239.858 229.469 238.478C229.794 237.731 229.757 237.326 229.634 236.813L229.523 236.366C229.139 234.802 228.966 233.612 229.847 232.079ZM231.421 200.742C234.492 202.611 239.171 206.967 235.868 211.599C231.979 215.683 226.38 211.001 223.621 208.883C221.062 207.242 218.188 211.463 220.561 213.379C240.499 228.153 248.59 201.231 232.974 198.546C231.255 198.25 230.616 200.164 231.421 200.742ZM198.99 187.931C200.875 185.1 205.178 185.517 206.216 188.876C206.779 190.695 206.002 192.331 206.042 194.148C206.076 195.683 205.976 197.393 205.506 198.88C204.433 202.27 201.387 204.664 197.784 204.565C194.192 204.466 191.028 202.19 189.524 198.986C188.014 195.769 188.334 192.44 189.436 189.169C189.489 189.012 189.695 188.935 189.819 189.068C191.121 190.453 192.075 191.916 193.062 193.468L194.073 195.058C194.846 196.256 195.969 197.786 197.412 197.69L197.629 197.668C198.03 197.634 197.968 197.713 198.278 197.166C198.421 196.913 198.395 196.443 198.464 196.144L198.488 196.043V196.043L198.475 195.988C198.444 195.844 198.414 195.571 198.39 195.098L198.384 194.993C198.28 192.78 197.655 189.936 198.99 187.931ZM246.773 189.815C246.435 186.195 251.52 185.391 253.211 188.07C254.093 189.467 254.349 191.222 254.544 192.884L254.636 193.673C254.836 195.381 254.915 197.157 254.174 198.75C253.008 201.259 250.471 202.585 247.735 202.375C245.122 202.174 242.738 200.657 241.482 198.355C240.361 196.302 239.247 192.291 240.608 190.149C240.69 190.019 240.854 190.002 240.967 190.103C242.253 191.245 242.463 193.329 243.227 194.818C244.016 196.353 245.212 197.85 247.024 198.083C248.759 198.306 249.421 197.358 248.979 195.703C248.408 193.567 246.988 192.114 246.773 189.815ZM200.364 166.408L201.196 166.089C204.045 165.012 207.957 163.766 210.273 166.085C211.702 167.515 211.974 169.622 210.955 171.367C209.719 173.48 207.502 173.533 205.361 173.844C202.926 174.198 200.45 174.871 198.183 175.831C195.629 176.913 193.259 178.261 190.938 179.766C188.731 181.197 186.532 183.536 183.891 183.977C183.783 183.994 183.66 183.948 183.632 183.83C183.032 181.245 184.699 178.701 186.187 176.685C187.987 174.243 190.168 172.239 192.606 170.443C194.959 168.708 197.647 167.455 200.364 166.408ZM252.122 175.597L252.376 175.553C254.104 175.265 255.67 175.331 256.972 176.701C257.966 177.746 258.349 179.1 257.875 180.481C257.438 181.756 256.46 183.051 255.041 183.318C250.251 184.22 244.945 184.071 240.131 183.388C237.928 183.075 235.705 182.693 233.56 182.089L232.573 181.803C230.782 181.291 228.731 180.756 227.43 179.437C226.962 178.964 227.232 178.285 227.792 178.066C230.062 177.176 233.173 177.65 235.594 177.58C238.41 177.499 241.23 177.288 244.033 176.997C246.771 176.712 249.421 176.093 252.122 175.597Z" fill="black"/>
<path fill-rule="evenodd" clip-rule="evenodd" d="M253.787 170.472C263.333 170.472 268.78 172.526 270.776 172.686L270.836 172.691C271.667 172.744 272.412 172.813 273.193 173.116C276.067 174.223 276.535 177.24 274.858 179.141C274.74 183.074 275.257 187.67 274.37 191.617C273.276 208.253 265.459 211.06 261.016 212.085C258.785 212.6 256.141 212.804 253.771 212.261C249.729 212.11 245.733 210.844 242.313 208.638C237.551 205.564 234.014 200.839 232.867 195.232C232.323 192.559 232.068 189.777 232.364 187.06L232.408 186.686C230.86 185.945 229.067 185.805 227.218 185.74C226.334 185.708 225.464 185.68 224.618 185.717C223.791 185.81 222.975 185.933 222.155 186.1C221.261 186.371 220.416 186.817 219.636 187.523L219.582 188.554C219.435 191.129 219.097 193.711 218.576 196.238C217.807 199.965 216.57 203.525 213.937 206.169C213.045 207.502 211.942 208.691 210.603 209.721C205.739 213.469 199.13 214.846 193.065 214.327C180.752 213.276 173.635 203.492 171.994 199.311L171.896 199.057C170.711 195.949 169.767 191.915 166.023 191.247L165.227 191.104C163.518 190.783 161.942 190.336 160.94 188.668C160.501 187.939 160.275 187.125 160.22 186.294C159.635 186.339 159.051 186.382 158.47 186.424C153.83 187.406 126.001 188.238 123.78 188.238C123.78 188.238 119.51 190.037 117.707 188.644C116.458 187.674 116.047 186.383 116.735 184.92C117.773 182.718 122.561 181.394 124.687 180.975C124.687 180.975 158.997 181.26 161.467 180.791C162.995 179.214 165.728 179.43 168.011 179.181C169.902 177.832 172.547 176.928 174.636 176.323C175.062 176.161 175.483 176.005 175.893 175.858C179.723 174.493 183.704 173.77 187.746 173.382C191.913 172.985 196.093 173.165 200.237 173.733C201.983 173.97 203.713 174.276 205.43 174.677C208.506 175.083 211.563 175.752 214.64 176.544L215.255 176.705C218.495 177.555 221.824 178.29 225.178 177.714C227.909 177.248 230.534 176.196 233.052 175.059L233.379 174.91C238.915 172.38 247.559 170.472 253.787 170.472ZM205.097 179.721C203.055 179.271 202.183 182.423 204.231 182.874C205.682 183.193 206.912 183.925 207.743 185.166L207.83 185.301C208.945 187.076 211.764 185.437 210.641 183.65C209.378 181.639 207.416 180.231 205.097 179.721ZM264.916 177.767C264.196 177.259 263.106 177.636 262.688 178.353C262.228 179.143 262.53 180.022 263.204 180.539L263.273 180.59C263.891 181.026 264.493 181.808 264.569 182.609L264.576 182.71C264.657 184.807 267.913 184.817 267.832 182.71C267.753 180.648 266.56 178.925 264.916 177.767Z" fill="black"/>
</g>
</svg>
