<svg width="1048" height="247" viewBox="0 0 1048 247" fill="none" xmlns="http://www.w3.org/2000/svg">
<path d="M1026.82 59V185H1015.84L934.84 82.76V185H921.52V59H932.5L1013.68 161.24V59H1026.82Z" fill="white"/>
<path d="M1026.82 59H1029.32V56.5H1026.82V59ZM1026.82 185V187.5H1029.32V185H1026.82ZM1015.84 185L1013.88 186.552L1014.63 187.5H1015.84V185ZM934.84 82.76L936.8 81.2075L932.34 75.5786V82.76H934.84ZM934.84 185V187.5H937.34V185H934.84ZM921.52 185H919.02V187.5H921.52V185ZM921.52 59V56.5H919.02V59H921.52ZM932.5 59L934.458 57.4454L933.707 56.5H932.5V59ZM1013.68 161.24L1011.72 162.795L1016.18 168.409V161.24H1013.68ZM1013.68 59V56.5H1011.18V59H1013.68ZM1024.32 59V185H1029.32V59H1024.32ZM1026.82 182.5H1015.84V187.5H1026.82V182.5ZM1017.8 183.448L936.8 81.2075L932.88 84.3125L1013.88 186.552L1017.8 183.448ZM932.34 82.76V185H937.34V82.76H932.34ZM934.84 182.5H921.52V187.5H934.84V182.5ZM924.02 185V59H919.02V185H924.02ZM921.52 61.5H932.5V56.5H921.52V61.5ZM930.542 60.5546L1011.72 162.795L1015.64 159.685L934.458 57.4454L930.542 60.5546ZM1016.18 161.24V59H1011.18V161.24H1016.18ZM1013.68 61.5H1026.82V56.5H1013.68V61.5Z" fill="white"/>
<circle cx="829" cy="88" r="52" stroke="white" stroke-width="32"/>
<path d="M742.42 173.48V185H639.1V175.82L722.62 70.52H640.36V59H740.26V68.18L656.92 173.48H742.42Z" fill="white"/>
<path d="M742.42 173.48H744.92V170.98H742.42V173.48ZM742.42 185V187.5H744.92V185H742.42ZM639.1 185H636.6V187.5H639.1V185ZM639.1 175.82L637.141 174.266L636.6 174.949V175.82H639.1ZM722.62 70.52L724.579 72.0736L727.794 68.02H722.62V70.52ZM640.36 70.52H637.86V73.02H640.36V70.52ZM640.36 59V56.5H637.86V59H640.36ZM740.26 59H742.76V56.5H740.26V59ZM740.26 68.18L742.22 69.7315L742.76 69.0496V68.18H740.26ZM656.92 173.48L654.96 171.928L651.753 175.98H656.92V173.48ZM739.92 173.48V185H744.92V173.48H739.92ZM742.42 182.5H639.1V187.5H742.42V182.5ZM641.6 185V175.82H636.6V185H641.6ZM641.059 177.374L724.579 72.0736L720.661 68.9664L637.141 174.266L641.059 177.374ZM722.62 68.02H640.36V73.02H722.62V68.02ZM642.86 70.52V59H637.86V70.52H642.86ZM640.36 61.5H740.26V56.5H640.36V61.5ZM737.76 59V68.18H742.76V59H737.76ZM738.3 66.6285L654.96 171.928L658.88 175.031L742.22 69.7315L738.3 66.6285ZM656.92 175.98H742.42V170.98H656.92V175.98Z" fill="white"/>
<path d="M590.52 59H603.84V185H590.52V59Z" fill="white"/>
<path d="M590.52 59V56.5H588.02V59H590.52ZM603.84 59H606.34V56.5H603.84V59ZM603.84 185V187.5H606.34V185H603.84ZM590.52 185H588.02V187.5H590.52V185ZM590.52 61.5H603.84V56.5H590.52V61.5ZM601.34 59V185H606.34V59H601.34ZM603.84 182.5H590.52V187.5H603.84V182.5ZM593.02 185V59H588.02V185H593.02Z" fill="white"/>
<path d="M544.56 185L515.76 144.5C512.52 144.86 509.16 145.04 505.68 145.04H471.84V185H458.52V59H505.68C521.76 59 534.36 62.84 543.48 70.52C552.6 78.2 557.16 88.76 557.16 102.2C557.16 112.04 554.64 120.38 549.6 127.22C544.68 133.94 537.6 138.8 528.36 141.8L559.14 185H544.56ZM505.32 133.7C517.8 133.7 527.34 130.94 533.94 125.42C540.54 119.9 543.84 112.16 543.84 102.2C543.84 92 540.54 84.2 533.94 78.8C527.34 73.28 517.8 70.52 505.32 70.52H471.84V133.7H505.32Z" fill="white"/>
<path d="M544.56 185L542.523 186.449L543.27 187.5H544.56V185ZM515.76 144.5L517.797 143.051L516.945 141.853L515.484 142.015L515.76 144.5ZM471.84 145.04V142.54H469.34V145.04H471.84ZM471.84 185V187.5H474.34V185H471.84ZM458.52 185H456.02V187.5H458.52V185ZM458.52 59V56.5H456.02V59H458.52ZM543.48 70.52L541.87 72.4323L543.48 70.52ZM549.6 127.22L547.587 125.737L547.583 125.743L549.6 127.22ZM528.36 141.8L527.588 139.422L524.346 140.475L526.324 143.251L528.36 141.8ZM559.14 185V187.5H563.991L561.176 183.549L559.14 185ZM533.94 125.42L535.544 127.338L533.94 125.42ZM533.94 78.8L532.336 80.7177L532.346 80.7263L532.357 80.7349L533.94 78.8ZM471.84 70.52V68.02H469.34V70.52H471.84ZM471.84 133.7H469.34V136.2H471.84V133.7ZM546.597 183.551L517.797 143.051L513.723 145.949L542.523 186.449L546.597 183.551ZM515.484 142.015C512.341 142.364 509.074 142.54 505.68 142.54V147.54C509.246 147.54 512.699 147.356 516.036 146.985L515.484 142.015ZM505.68 142.54H471.84V147.54H505.68V142.54ZM469.34 145.04V185H474.34V145.04H469.34ZM471.84 182.5H458.52V187.5H471.84V182.5ZM461.02 185V59H456.02V185H461.02ZM458.52 61.5H505.68V56.5H458.52V61.5ZM505.68 61.5C521.377 61.5 533.336 65.2463 541.87 72.4323L545.09 68.6077C535.384 60.4337 522.143 56.5 505.68 56.5V61.5ZM541.87 72.4323C550.35 79.5734 554.66 89.3921 554.66 102.2H559.66C559.66 88.1279 554.85 76.8266 545.09 68.6077L541.87 72.4323ZM554.66 102.2C554.66 111.594 552.263 119.392 547.587 125.737L551.613 128.703C557.018 121.368 559.66 112.486 559.66 102.2H554.66ZM547.583 125.743C543.022 131.972 536.414 136.556 527.588 139.422L529.132 144.178C538.786 141.044 546.338 135.908 551.617 128.697L547.583 125.743ZM526.324 143.251L557.104 186.451L561.176 183.549L530.396 140.349L526.324 143.251ZM559.14 182.5H544.56V187.5H559.14V182.5ZM505.32 136.2C518.129 136.2 528.33 133.371 535.544 127.338L532.336 123.502C526.35 128.509 517.471 131.2 505.32 131.2V136.2ZM535.544 127.338C542.805 121.265 546.34 112.77 546.34 102.2H541.34C541.34 111.55 538.275 118.535 532.336 123.502L535.544 127.338ZM546.34 102.2C546.34 91.4131 542.819 82.8343 535.523 76.8651L532.357 80.7349C538.261 85.5657 541.34 92.5869 541.34 102.2H546.34ZM535.544 76.8823C528.33 70.8485 518.129 68.02 505.32 68.02V73.02C517.471 73.02 526.35 75.7115 532.336 80.7177L535.544 76.8823ZM505.32 68.02H471.84V73.02H505.32V68.02ZM469.34 70.52V133.7H474.34V70.52H469.34ZM471.84 136.2H505.32V131.2H471.84V136.2Z" fill="white"/>
<path d="M407.54 151.34H337.34L322.22 185H308.36L365.96 59H379.1L436.7 185H422.66L407.54 151.34ZM402.68 140.54L372.44 72.86L342.2 140.54H402.68Z" fill="white"/>
<path d="M407.54 151.34L410.733 149.906L409.805 147.84H407.54V151.34ZM337.34 151.34V147.84H335.075L334.147 149.906L337.34 151.34ZM322.22 185V188.5H324.485L325.413 186.434L322.22 185ZM308.36 185L305.177 183.545L302.912 188.5H308.36V185ZM365.96 59V55.5H363.712L362.777 57.5448L365.96 59ZM379.1 59L382.283 57.5448L381.348 55.5H379.1V59ZM436.7 185V188.5H442.148L439.883 183.545L436.7 185ZM422.66 185L419.467 186.434L420.395 188.5H422.66V185ZM402.68 140.54V144.04H408.077L405.876 139.112L402.68 140.54ZM372.44 72.86L375.636 71.4322L372.44 64.2803L369.244 71.4322L372.44 72.86ZM342.2 140.54L339.004 139.112L336.803 144.04H342.2V140.54ZM407.54 147.84H337.34V154.84H407.54V147.84ZM334.147 149.906L319.027 183.566L325.413 186.434L340.533 152.774L334.147 149.906ZM322.22 181.5H308.36V188.5H322.22V181.5ZM311.543 186.455L369.143 60.4552L362.777 57.5448L305.177 183.545L311.543 186.455ZM365.96 62.5H379.1V55.5H365.96V62.5ZM375.917 60.4552L433.517 186.455L439.883 183.545L382.283 57.5448L375.917 60.4552ZM436.7 181.5H422.66V188.5H436.7V181.5ZM425.853 183.566L410.733 149.906L404.347 152.774L419.467 186.434L425.853 183.566ZM405.876 139.112L375.636 71.4322L369.244 74.2878L399.484 141.968L405.876 139.112ZM369.244 71.4322L339.004 139.112L345.396 141.968L375.636 74.2878L369.244 71.4322ZM342.2 144.04H402.68V137.04H342.2V144.04Z" fill="white"/>
<path d="M199.52 59H212.84V173.48H283.4V185H199.52V59Z" fill="white"/>
<path d="M199.52 59V56H196.52V59H199.52ZM212.84 59H215.84V56H212.84V59ZM212.84 173.48H209.84V176.48H212.84V173.48ZM283.4 173.48H286.4V170.48H283.4V173.48ZM283.4 185V188H286.4V185H283.4ZM199.52 185H196.52V188H199.52V185ZM199.52 62H212.84V56H199.52V62ZM209.84 59V173.48H215.84V59H209.84ZM212.84 176.48H283.4V170.48H212.84V176.48ZM280.4 173.48V185H286.4V173.48H280.4ZM283.4 182H199.52V188H283.4V182ZM202.52 185V59H196.52V185H202.52Z" fill="white"/>
<path d="M157.26 122H170.04V170.06C164.16 175.22 157.2 179.18 149.16 181.94C141.12 184.7 132.66 186.08 123.78 186.08C111.18 186.08 99.84 183.32 89.76 177.8C79.68 172.28 71.76 164.66 66 154.94C60.24 145.1 57.36 134.12 57.36 122C57.36 109.88 60.24 98.96 66 89.24C71.76 79.4 79.68 71.72 89.76 66.2C99.84 60.68 111.24 57.92 123.96 57.92C133.56 57.92 142.38 59.48 150.42 62.6C158.46 65.6 165.24 70.1 170.76 76.1L162.48 84.56C152.52 74.72 139.86 69.8 124.5 69.8C114.3 69.8 105.06 72.08 96.78 76.64C88.62 81.08 82.2 87.32 77.52 95.36C72.84 103.28 70.5 112.16 70.5 122C70.5 131.84 72.84 140.72 77.52 148.64C82.2 156.56 88.62 162.8 96.78 167.36C104.94 171.92 114.12 174.2 124.32 174.2C137.28 174.2 148.26 170.96 157.26 164.48V122Z" fill="white"/>
<path d="M157.26 122V119H154.26V122H157.26ZM170.04 122H173.04V119H170.04V122ZM170.04 170.06L172.019 172.315L173.04 171.419V170.06H170.04ZM149.16 181.94L150.134 184.777L149.16 181.94ZM89.76 177.8L91.2009 175.169L89.76 177.8ZM66 154.94L63.411 156.456L63.415 156.462L63.4191 156.469L66 154.94ZM66 89.24L68.5809 90.7694L68.585 90.7625L68.589 90.7555L66 89.24ZM150.42 62.6L149.335 65.3968L149.353 65.4039L149.371 65.4107L150.42 62.6ZM170.76 76.1L172.904 78.1984L174.895 76.1639L172.968 74.0688L170.76 76.1ZM162.48 84.56L160.372 86.6941L162.516 88.8125L164.624 86.6584L162.48 84.56ZM96.78 76.64L98.2138 79.2752L98.2205 79.2715L98.2272 79.2678L96.78 76.64ZM77.52 95.36L80.1028 96.8862L80.1078 96.8777L80.1127 96.8692L77.52 95.36ZM96.78 167.36L98.2435 164.741L96.78 167.36ZM157.26 164.48L159.013 166.915L160.26 166.017V164.48H157.26ZM157.26 125H170.04V119H157.26V125ZM167.04 122V170.06H173.04V122H167.04ZM168.061 167.805C162.5 172.686 155.889 176.458 148.186 179.103L150.134 184.777C158.511 181.902 165.82 177.754 172.019 172.315L168.061 167.805ZM148.186 179.103C140.473 181.75 132.344 183.08 123.78 183.08V189.08C132.977 189.08 141.767 187.65 150.134 184.777L148.186 179.103ZM123.78 183.08C111.634 183.08 100.798 180.424 91.2009 175.169L88.3191 180.431C98.8824 186.216 110.726 189.08 123.78 189.08V183.08ZM91.2009 175.169C81.5843 169.902 74.0617 162.659 68.5809 153.411L63.4191 156.469C69.4583 166.661 77.7757 174.658 88.3191 180.431L91.2009 175.169ZM68.589 153.424C63.1152 144.073 60.36 133.622 60.36 122H54.36C54.36 134.618 57.3648 146.127 63.411 156.456L68.589 153.424ZM60.36 122C60.36 110.378 63.1152 99.9927 68.5809 90.7694L63.4191 87.7106C57.3648 97.9273 54.36 109.382 54.36 122H60.36ZM68.589 90.7555C74.0722 81.3885 81.5937 74.0924 91.2009 68.8313L88.3191 63.5687C77.7663 69.3476 69.4478 77.4115 63.411 87.7245L68.589 90.7555ZM91.2009 68.8313C100.793 63.5783 111.689 60.92 123.96 60.92V54.92C110.791 54.92 98.8866 57.7817 88.3191 63.5687L91.2009 68.8313ZM123.96 60.92C133.231 60.92 141.678 62.4255 149.335 65.3968L151.505 59.8032C143.082 56.5345 133.889 54.92 123.96 54.92V60.92ZM149.371 65.4107C156.993 68.2546 163.369 72.4969 168.552 78.1312L172.968 74.0688C167.111 67.7031 159.927 62.9454 151.469 59.7893L149.371 65.4107ZM168.616 74.0016L160.336 82.4616L164.624 86.6584L172.904 78.1984L168.616 74.0016ZM164.588 82.4259C154.01 71.9747 140.565 66.8 124.5 66.8V72.8C139.155 72.8 151.03 77.4653 160.372 86.6941L164.588 82.4259ZM124.5 66.8C113.835 66.8 104.091 69.1889 95.3328 74.0121L98.2272 79.2678C106.029 74.9711 114.765 72.8 124.5 72.8V66.8ZM95.3462 74.0048C86.7034 78.7075 79.8829 85.3373 74.9273 93.8508L80.1127 96.8692C84.5171 89.3027 90.5366 83.4525 98.2138 79.2752L95.3462 74.0048ZM74.9372 93.8338C69.965 102.248 67.5 111.662 67.5 122H73.5C73.5 112.658 75.715 104.312 80.1028 96.8862L74.9372 93.8338ZM67.5 122C67.5 132.338 69.965 141.752 74.9372 150.166L80.1028 147.114C75.715 139.688 73.5 131.342 73.5 122H67.5ZM74.9372 150.166C79.8917 158.551 86.7012 165.164 95.3165 169.979L98.2435 164.741C90.5388 160.436 84.5083 154.569 80.1028 147.114L74.9372 150.166ZM95.3165 169.979C103.964 174.811 113.656 177.2 124.32 177.2V171.2C114.584 171.2 105.916 169.029 98.2435 164.741L95.3165 169.979ZM124.32 177.2C137.8 177.2 149.42 173.821 159.013 166.915L155.507 162.045C147.1 168.099 136.76 171.2 124.32 171.2V177.2ZM160.26 164.48V122H154.26V164.48H160.26Z" fill="white"/>
<path fill-rule="evenodd" clip-rule="evenodd" d="M123.5 0C122.173 0 120.851 0.0209961 119.532 0.0627136L120.766 39.0432C121.673 39.0145 122.585 39 123.5 39C124.415 39 125.327 39.0145 126.234 39.0432L127.468 0.0627136C126.149 0.0209961 124.827 0 123.5 0ZM65.1965 14.6056C62.8584 15.8597 60.5658 17.1866 58.3218 18.5831L78.9285 51.6945C80.4641 50.7388 82.0321 49.8314 83.6304 48.9742L65.1965 14.6056ZM188.678 18.5831C186.434 17.1866 184.142 15.8597 181.803 14.6057L163.37 48.9742C164.968 49.8314 166.536 50.7388 168.071 51.6945L188.678 18.5831ZM18.5831 58.3218C17.1866 60.5658 15.8597 62.8584 14.6056 65.1965L48.9741 83.6304C49.8314 82.0321 50.7388 80.4641 51.6945 78.9285L18.5831 58.3218ZM0.0627136 119.532C0.0209942 120.851 0 122.173 0 123.5C0 124.827 0.0209942 126.149 0.0627136 127.468L39.0432 126.234C39.0145 125.327 39 124.415 39 123.5C39 122.585 39.0145 121.673 39.0432 120.766L0.0627136 119.532ZM14.6056 181.803C15.8597 184.142 17.1866 186.434 18.5831 188.678L51.6945 168.071C50.7388 166.536 49.8314 164.968 48.9741 163.37L14.6056 181.803ZM58.3218 228.417C60.5658 229.813 62.8584 231.14 65.1965 232.394L83.6304 198.026C82.0321 197.169 80.4641 196.261 78.9285 195.305L58.3218 228.417ZM181.803 232.394C184.142 231.14 186.434 229.813 188.678 228.417L168.071 195.305C166.536 196.261 164.968 197.169 163.37 198.026L181.803 232.394ZM119.532 246.937C120.851 246.979 122.173 247 123.5 247C124.827 247 126.149 246.979 127.468 246.937L126.234 207.957C125.327 207.986 124.415 208 123.5 208C122.585 208 121.673 207.986 120.766 207.957L119.532 246.937Z" fill="white"/>
</svg>
