<svg width="2957" height="596" viewBox="0 0 2957 596" fill="none" xmlns="http://www.w3.org/2000/svg">
<g clip-path="url(#clip0_110_2)">
<path d="M904 372C904 378.829 904.011 385.158 903.997 391.488C903.976 401.014 899.064 405.998 889.712 406C879.719 406.002 869.725 406 859.732 406C848.551 406 846.722 404.341 845.608 392.342C843.322 393.729 841.143 394.653 839.459 396.138C828.631 405.685 815.901 409.554 801.645 410.105C786.926 410.674 772.657 409.183 759.352 402.676C737.3 391.889 723.843 373.733 715.996 350.913C711.117 336.722 709.992 322.03 711.151 307.317C712.656 288.206 718.798 270.344 730.589 255.09C743.669 238.17 760.885 227.764 782.474 224.934C801.404 222.452 819.505 223.685 835.7 235.024C838.889 237.257 841.639 240.117 845.186 243.206C845.508 241.27 845.929 239.799 845.97 238.319C846.163 231.316 849.551 228.006 856.706 228.002C867.532 227.995 878.382 228.44 889.177 227.86C897.762 227.399 904.212 233.644 904.092 243.085C903.806 265.733 904 288.388 904 311.039C904 331.193 904 351.346 904 372ZM843.998 322.125C844.61 314.034 843.7 306.053 839.907 298.903C829.563 279.401 806.567 275.725 789.366 283.35C777.877 288.443 772.2 297.831 769.733 310.23C767.166 323.128 773.018 341.586 784.995 348.55C792.99 353.197 801.317 355.18 810.7 354.146C820.555 353.059 828.726 349.228 835.354 342.088C840.307 336.752 842.466 330.008 843.998 322.125Z" fill="white"/>
<path d="M373.291 350.316C350.618 354.146 329.215 351.408 309.037 340.977C291.542 331.933 277.818 318.818 268.246 301.59C261.219 288.944 257.027 275.503 255.849 260.864C253.524 231.969 261.863 207.035 281.011 185.395C292.644 172.249 306.812 162.875 323.272 157.481C340.282 151.906 357.808 151.455 375.541 154.737C391.302 157.654 405.2 164.349 417.532 174.18C434.062 187.36 445.347 204.312 450.956 224.767C454.284 236.904 455.717 249.14 454.231 261.927C452.755 274.621 449.871 286.685 443.958 297.907C429.454 325.433 406.685 342.458 376.637 349.96C375.692 350.196 374.646 350.027 373.291 350.316ZM387.518 221.012C385.631 219.459 383.784 217.854 381.851 216.361C373.187 209.668 363.1 206.439 352.446 207.237C342.081 208.013 332.686 211.944 324.74 219.511C315.874 227.955 310.887 237.911 310.08 249.875C309.308 261.316 313.626 271.313 320.131 280.519C328.185 291.915 349.173 299.951 362.477 296.838C376.23 293.621 387.235 286.45 394.216 274.124C399.163 265.39 401.144 255.941 399.4 245.631C397.834 236.376 393.58 228.734 387.518 221.012Z" fill="white"/>
<path d="M205.321 333.253C195.74 341.043 184.814 345.382 173.539 348.67C162.289 351.952 150.563 353.073 138.94 351.868C120.598 349.966 103.497 344.233 88.496 333.02C68.2306 317.871 55.0186 298.28 49.9566 273.304C45.3767 250.707 47.5689 228.837 57.5474 208.107C63.8902 194.93 73.3234 184.047 84.6617 174.557C97.2705 164.004 111.632 157.332 127.418 154.48C145.759 151.166 164.242 151.719 182.018 158.513C196.61 164.091 209.594 172.268 220.203 183.786C232.903 197.575 241.948 213.471 244.873 232.182C246.287 241.222 247.249 250.521 246.796 259.622C246.026 275.088 241.261 289.691 233.362 303.06C226.305 315.006 217.129 325.136 205.321 333.253ZM103.996 263.421C105.675 271.412 109.752 278.225 115.437 283.8C128.663 296.768 147.936 301.462 165.584 292.987C182.405 284.91 191.385 271.528 192.071 252.593C192.482 241.245 188.377 231.51 181.475 223.204C172.125 211.952 159.303 206.444 144.851 207.234C131.971 207.938 120.564 213.659 112.573 224.092C103.909 235.403 99.5775 248.122 103.996 263.421Z" fill="white"/>
<path d="M1085.25 363.655C1079.38 351.618 1076.03 339.43 1074.81 326.319C1072.61 302.681 1078.33 281.411 1091.53 262.044C1104.41 243.141 1122.4 230.998 1144.57 226.192C1168.94 220.905 1192.9 223.27 1215.04 235.628C1237.1 247.95 1250.51 267.143 1255.82 291.633C1257.91 301.3 1258.37 311.382 1258.89 321.31C1259.32 329.749 1253.66 334.997 1245.28 334.998C1209.13 335.003 1172.97 335 1136.81 335C1134.99 335 1133.17 335 1130.63 335C1133.28 342.702 1136.78 349.151 1142.95 354.008C1160.4 367.731 1188.56 367.508 1206.06 352.832C1208.23 351.014 1213.43 350.595 1216.03 351.904C1225.34 356.592 1234.31 362.035 1243.05 367.746C1247.06 370.371 1248.44 377.829 1243.88 382.677C1229.65 397.801 1212.19 406.469 1191.68 408.977C1166.77 412.021 1142.54 410.086 1119.98 397.966C1105.2 390.026 1093.55 378.774 1085.25 363.655ZM1131.37 298.114C1132.58 298.743 1133.78 299.911 1135 299.919C1152.32 300.038 1169.63 300 1186.95 300C1193.23 300 1199.51 300 1207.42 300C1203.49 293.086 1201.09 286.269 1196.56 281.456C1187.05 271.341 1174.73 268.563 1160.99 270.92C1147.42 273.249 1135.3 283.979 1131.37 298.114Z" fill="white"/>
<path d="M1314.74 231.743C1318.46 230.311 1321.86 228.321 1325.34 228.159C1335.15 227.703 1344.99 228 1354.82 228C1366.49 228 1368.22 229.527 1369.38 241.398C1373.2 238.554 1376.55 235.535 1380.37 233.307C1402.03 220.664 1424.74 220.558 1447.07 230.275C1462.91 237.173 1472.78 250.783 1477.78 267.15C1480.3 275.414 1481.7 284.323 1481.82 292.965C1482.27 326.44 1482 359.926 1482 393.407C1482 401.379 1477.33 405.993 1469.28 405.998C1458.62 406.006 1447.95 406.014 1437.29 405.995C1429.5 405.982 1425 401.43 1425 393.599C1425 367.113 1425.1 340.627 1424.91 314.143C1424.87 309.161 1424.15 304.057 1422.88 299.238C1420.48 290.145 1414.47 284.499 1405.32 281.643C1396.47 278.882 1388.43 280.155 1380.79 284.78C1371.96 290.126 1369.21 298.976 1369.11 308.448C1368.81 336.263 1369 364.083 1369 391.901C1369 401.297 1364.3 406 1354.92 406C1345.26 406 1335.59 406 1325.93 406C1315.36 406 1311 401.691 1311 391.253C1311 361.436 1311 331.619 1311 301.802C1311 281.979 1310.84 262.154 1311.16 242.337C1311.21 238.881 1313.31 235.458 1314.74 231.743Z" fill="white"/>
<path d="M571 281C571 259.862 571 239.223 571 218C561.043 218 551.28 218.118 541.522 217.958C535.29 217.855 528.938 218 522.871 216.833C516.481 215.604 514.004 211.523 514.001 205.228C513.997 194.066 513.974 182.903 514.011 171.741C514.031 165.577 518.642 161.01 524.861 161.008C575.509 160.993 626.157 161.065 676.805 160.925C683.757 160.906 688.734 165.972 688.916 172.636C689.222 183.79 689.102 194.96 688.962 206.121C688.878 212.86 683.018 217.946 675.471 217.981C661.167 218.047 646.863 218 632 218C632 219.99 632 221.757 632 223.523C632 279.336 631.911 335.149 632.088 390.961C632.117 400.289 625.857 406.592 617.126 406.14C605.993 405.563 594.808 406.006 583.645 405.998C576.136 405.993 571.016 400.753 571.009 392.959C570.986 366.468 571 339.978 571 313.488C571 302.825 571 292.163 571 281Z" fill="white"/>
<path d="M1588.06 404.006C1569.36 396.258 1558.99 382.013 1555.14 363.041C1553.31 353.978 1552.35 344.619 1552.14 335.368C1551.69 315.752 1552 296.12 1552 276.525C1546.37 276 1540.93 275.986 1535.73 274.875C1530.13 273.68 1527.05 269.097 1527.01 263.483C1526.96 255.819 1526.95 248.155 1527.02 240.492C1527.07 233.719 1532.66 228.119 1539.4 228.012C1543.39 227.948 1547.38 228 1552 228C1552 220.778 1552.3 213.672 1551.93 206.602C1551.42 197.018 1557.71 190.252 1567.31 190.865C1576.94 191.479 1586.66 191.441 1596.29 190.853C1603.34 190.422 1610.68 197.681 1610.13 204.7C1609.55 212.149 1610.04 219.682 1610.07 227.178C1610.07 227.305 1610.25 227.431 1610.69 228C1617.46 228 1624.58 228.176 1631.68 227.95C1638.67 227.728 1644.76 232.972 1644.96 241.09C1645.14 248.25 1645.07 255.418 1644.98 262.58C1644.89 270.229 1639.18 275.9 1631.51 275.984C1624.53 276.06 1617.55 276 1610 276C1610 279.122 1610 282.058 1610 284.994C1610 301.987 1609.67 318.989 1610.13 335.969C1610.39 345.19 1613.21 353.74 1623.34 356.985C1626.98 358.15 1630.9 358.73 1634.73 358.917C1641.43 359.246 1644.98 362.549 1645 369.253C1645.01 377.416 1644.88 385.581 1645.03 393.742C1645.24 405.357 1642.81 408.067 1632.99 408.669C1618.06 409.585 1602.75 410.757 1588.06 404.006Z" fill="white"/>
<path d="M1023 287C1023 322.308 1023 357.115 1023 391.923C1023 401.294 1018.28 406 1008.9 406C998.907 406 988.899 405.649 978.927 406.101C969.361 406.534 964.983 398.913 964.993 392.124C965.015 375.636 965 359.148 965 342.66C965 287.201 965.06 231.742 964.942 176.283C964.922 166.759 970.075 160.039 981.203 160.005C989.863 159.979 998.531 159.782 1007.18 160.073C1013.41 160.282 1019.65 161.211 1022.06 168.402C1022.67 170.198 1022.96 172.184 1022.96 174.083C1023.01 211.555 1023 249.028 1023 287Z" fill="white"/>
<path d="M1689 342C1689 306.509 1689 271.518 1689 236.526C1689 230.221 1691.17 228.027 1697.36 228.001C1699.19 227.994 1701.06 227.778 1702.85 228.048C1706.54 228.603 1709.21 230.055 1709.07 234.635C1708.82 242.241 1709 249.86 1709 258.613C1713.15 254.04 1716.38 249.98 1720.12 246.461C1732.55 234.767 1747.06 227.395 1764.15 224.92C1786.98 221.615 1808.31 225.589 1827.43 238.299C1844.41 249.588 1855.55 265.742 1862 285.118C1866.23 297.843 1867.99 310.981 1866.87 324.233C1865.14 344.727 1858.58 363.453 1845.08 379.562C1831.37 395.918 1814.29 405.83 1793.24 409.019C1771.81 412.267 1751.26 409.775 1732.88 397.787C1726.03 393.321 1720.61 386.665 1714.5 381.057C1713.07 379.745 1711.46 378.633 1709 376.699C1709 389.234 1709 400.214 1709 411.194C1709 429.356 1709.01 447.518 1709 465.68C1708.99 472.01 1707.07 473.674 1700.93 474.066C1691.96 474.639 1688.81 471.527 1688.88 461.969C1689.17 422.148 1689 382.323 1689 342ZM1774.67 391C1779.24 390.667 1783.86 390.6 1788.39 389.955C1808.62 387.072 1823.91 376.521 1835.05 359.58C1844.2 345.667 1847.44 330.376 1847.14 313.844C1846.87 298.946 1842.84 285.199 1834.5 273.32C1816.75 248.036 1787.08 236.551 1756.56 246.884C1725.86 257.279 1710.63 284.453 1709.21 314.195C1708.83 322.018 1710.25 330.147 1712.13 337.821C1719.35 367.296 1742.58 388.35 1774.67 391Z" fill="white"/>
<path d="M2098.98 398.003C2090.54 404.033 2081.16 407.34 2071.52 408.8C2055.27 411.262 2039.06 411.133 2023.22 405.119C2002.8 397.363 1987.5 384.031 1976.99 364.991C1967.36 347.543 1963.53 328.693 1965.16 309.066C1966.93 287.861 1974.25 268.684 1988.83 252.523C2000.2 239.925 2013.77 231.348 2030.11 226.95C2044.11 223.183 2058.13 223.005 2072.34 225.665C2090.1 228.989 2104.6 237.797 2116.57 251.079C2118.37 253.073 2120.01 255.211 2121.72 257.282C2122.15 257.166 2122.57 257.05 2123 256.934C2123 250.249 2123 243.565 2123 236.88C2123.01 229.679 2124.72 228.337 2132 227.911C2139.85 227.451 2143.05 228.944 2143.03 239.002C2142.96 291.646 2142.99 344.29 2143.01 396.935C2143.01 400.442 2143.28 404.76 2139 405.265C2134.35 405.813 2129.43 404.969 2124.79 403.983C2123.84 403.78 2123.14 400.289 2123.08 398.29C2122.87 391.643 2123 384.986 2123 377.729C2121.63 378.204 2120.41 378.279 2119.72 378.918C2112.88 385.215 2106.13 391.605 2098.98 398.003ZM1999.47 362.985C2000.44 364.284 2001.3 365.673 2002.38 366.869C2018.88 385.175 2039 393.675 2063.88 390.056C2083.74 387.166 2098.92 377.104 2109.97 360.723C2121.56 343.541 2125.38 324.529 2122 304.084C2117.96 279.658 2105.56 260.88 2083.21 249.888C2063.48 240.186 2042.87 240.307 2023.45 250.433C1998.99 263.181 1987.16 284.874 1985.11 311.85C1983.73 330.173 1988.5 347.181 1999.47 362.985Z" fill="white"/>
<path d="M2423.38 399.768C2415.97 394.143 2408.11 389.474 2401.96 383.147C2388.14 368.931 2379.44 351.919 2376.93 331.888C2374.18 309.947 2376.88 289.183 2387.74 269.606C2400.63 246.361 2419.6 231.495 2445.75 225.968C2469.71 220.904 2491.9 225.044 2511.95 239.062C2528.24 250.457 2538.36 266.521 2543.85 285.369C2546.05 292.921 2546.68 300.931 2547.99 308.739C2548.39 311.141 2549.12 313.604 2548.91 315.972C2548.36 322.373 2546.46 326.988 2537.77 326.992C2492.43 327.01 2447.1 327 2401.77 327C2399.96 327 2398.14 327 2395.96 327C2398.31 341.988 2403.83 355.007 2413.67 366.255C2424.24 378.335 2437.32 385.94 2452.87 389.416C2467.1 392.595 2480.93 391.01 2494.57 386.096C2504.4 382.555 2512.62 376.786 2520 369.538C2524.18 365.432 2530.39 366.628 2535.76 372.263C2538.8 375.456 2538.16 379.235 2533.99 383.502C2520.05 397.761 2503.34 406.389 2483.48 409.051C2462.62 411.846 2442.6 409.768 2423.38 399.768ZM2405.44 278.05C2401.92 287.414 2398.39 296.779 2394.61 306.828C2440.05 306.828 2483.83 306.828 2527.72 306.828C2527.82 306.27 2528.05 305.796 2527.97 305.377C2524.55 286.436 2517.28 269.767 2501.82 257.144C2487.42 245.384 2470.92 241.513 2453.31 244.252C2432.48 247.49 2416.84 259.433 2405.44 278.05Z" fill="white"/>
<path d="M2779.98 391.002C2768.24 400.888 2755.22 407.036 2740.21 409.055C2721.58 411.561 2703.42 410.418 2686.43 401.741C2661.05 388.784 2645.68 367.8 2639.12 340.362C2637.32 332.823 2635.93 324.894 2636.2 317.208C2636.97 295.01 2642.42 274.231 2656.91 256.474C2671.28 238.867 2689.26 228.105 2711.87 224.924C2733.41 221.893 2753.81 224.812 2771.93 237.181C2779.99 242.687 2786.75 250.11 2794.28 256.819C2794.37 256.413 2794.94 255.043 2794.96 253.665C2795.05 247.171 2795 240.674 2795 234.179C2795 230.183 2797.02 228.137 2800.97 228.012C2803.14 227.944 2805.3 228.028 2807.47 227.994C2811.97 227.925 2814.02 230.14 2814.02 234.619C2813.99 289.583 2813.99 344.547 2814.01 399.511C2814.01 404.043 2811.81 406.124 2807.34 406.009C2805.34 405.957 2803.34 405.975 2801.34 406.005C2797.06 406.069 2794.97 403.994 2794.99 399.691C2795.02 391.897 2795 384.102 2795 375.16C2789.65 380.929 2785 385.95 2779.98 391.002ZM2785.97 353.352C2794.12 336.687 2796.88 319.324 2793.02 301.011C2789.53 284.377 2781.9 270.318 2768.78 259.182C2752.6 245.44 2733.82 240.663 2713.44 244.228C2692.44 247.901 2676.24 259.627 2666.12 278.671C2657.29 295.289 2654.37 312.901 2657.87 331.685C2660.52 345.897 2666.14 358.667 2675.81 369.049C2691.6 386.002 2711.21 393.453 2734.68 390.078C2757.96 386.731 2774.47 374.312 2785.97 353.352Z" fill="white"/>
<path d="M2286.5 224.218C2295.68 226.934 2304.69 228.81 2313.13 232.134C2327.01 237.603 2338.35 246.827 2347.27 258.826C2350.8 263.591 2349.86 267.303 2344.68 269.965C2342.05 271.313 2339.14 272.461 2336.25 272.821C2334.65 273.019 2332.21 271.866 2331.21 270.53C2321.87 258.089 2309.21 250.587 2294.71 246.086C2278.65 241.099 2262.78 242.449 2247.29 248.962C2223.13 259.119 2209.07 277.796 2203.3 302.696C2200 316.933 2201.85 331.275 2207.43 344.839C2214.55 362.173 2226.53 375.522 2243.38 383.607C2268.84 395.822 2293.63 392.964 2316.84 377.428C2322.03 373.955 2326.15 368.765 2330.39 364.033C2334.14 359.848 2340.58 360.02 2346.5 364.993C2350.07 367.99 2350.02 373.117 2346.43 377.088C2333.54 391.366 2318.61 402.264 2299.57 407.172C2286.29 410.595 2273.06 410.842 2259.65 409.003C2238.97 406.166 2221.51 396.681 2207.4 381.68C2193.61 367.015 2185.52 349.442 2182.85 329.172C2180.33 310.132 2183.29 292.094 2191.57 275.204C2199.15 259.743 2210.4 247.107 2225.35 237.863C2235.07 231.856 2245.36 227.266 2256.44 225.489C2266.15 223.932 2276.19 224.435 2286.5 224.218Z" fill="white"/>
<path d="M144.237 413.999C170.645 413.384 190.376 402.25 203.07 378.981C215.16 384.263 226.985 389.429 238.813 394.596C223.718 431.79 185.09 458.491 138.666 454.817C99.9072 451.749 68.2089 426.626 55.937 394.543C67.7413 389.362 79.5595 384.175 90.9051 379.195C95.0703 384.458 98.7369 389.839 103.151 394.516C113.267 405.234 125.628 411.776 140.532 413.041C141.632 413.135 142.696 413.669 144.237 413.999Z" fill="white"/>
<path d="M1926 326C1926 349.822 1926 373.145 1926 396.467C1926 404.461 1924.49 405.997 1916.65 406C1915.15 406 1913.64 406.091 1912.15 405.981C1908.33 405.698 1906.26 403.558 1906.02 399.759C1905.9 397.934 1906 396.096 1906 394.263C1906 319.631 1906.01 245 1905.97 170.368C1905.96 166.779 1905.91 162.386 1909.52 161.488C1913.78 160.429 1918.75 160.787 1923.01 161.967C1924.59 162.404 1925.87 166.915 1925.88 169.573C1926.04 221.548 1926 273.524 1926 326Z" fill="white"/>
<path d="M2866 348C2866 310.199 2866 272.897 2866 235.596C2866 230.02 2867.97 227.94 2873.67 228.047C2878.11 228.129 2883.56 226.265 2885.34 232.867C2885.71 234.255 2885.97 235.724 2885.97 237.156C2886.01 290.777 2886.01 344.397 2885.99 398.018C2885.99 403.991 2884.02 405.94 2878.1 405.998C2876.44 406.014 2874.77 406.009 2873.1 405.998C2867.84 405.965 2866.01 404.177 2866.01 398.957C2865.99 382.138 2866 365.319 2866 348Z" fill="white"/>
<path d="M265.339 135.225C263.764 147.348 254.072 156.842 242.623 158.061C234.296 158.948 226.886 157.733 220.227 152.109C215.023 147.715 212.066 142.212 211.11 135.819C209.843 127.348 211.366 119.004 217.314 112.648C220.562 109.177 225.26 106.564 229.794 104.903C238.028 101.887 246.21 103.118 253.566 108.11C263.041 114.541 266.566 123.735 265.339 135.225Z" fill="white"/>
<path d="M2608.99 399.429C2604.46 409.082 2598.45 412.189 2589.41 409.992C2584.05 408.688 2579.03 401.733 2579 395.575C2578.97 389.485 2584.01 382.385 2589.26 381.005C2599.43 378.334 2611.33 384.411 2608.99 399.429Z" fill="white"/>
<path d="M2863.01 181.52C2862.65 175.512 2864.09 170.773 2869.37 167.937C2874.13 165.379 2878.7 165.172 2883.29 168.642C2887.21 171.603 2889.26 177.2 2887.98 182.952C2887.1 186.893 2882.27 191.239 2877.77 191.965C2874.23 192.536 2867.45 190.545 2865.08 186.269C2864.3 184.875 2863.7 183.387 2863.01 181.52Z" fill="white"/>
</g>
<defs>
<clipPath id="clip0_110_2">
<rect width="2957" height="596" fill="white"/>
</clipPath>
</defs>
</svg>
